<svg xmlns="http://www.w3.org/2000/svg" width="785" height="202" viewBox="0.5 792.5 785 202"><style>.a{fill:#010101;}.b{fill:#8A9298;}</style><path d="M9.459 955.543H5.173l1.225-5.749h4.285l0.796-3.733c1.261-5.939 5.045-7.902 10.493-7.902 1.53 0 2.987 0.064 4.489 0.184l-1.273 6.003c-0.538-0.064-1.09-0.064-1.637-0.064 -2.388 0-3.399 0.738-3.804 2.637l-0.612 2.877h4.897l-1.224 5.749h-4.897l-5.779 27.182H3.68L9.459 955.543z" class="a"/><path d="M37.68 978.869h-0.122c-2.465 3.244-5.836 4.713-9.387 4.713 -5.265 0-7.774-2.877-6.396-9.366l5.191-24.422h8.448l-4.828 22.708c-0.702 3.305 0.127 4.592 2.637 4.592 2.877 0 4.844-1.776 5.624-5.449l4.648-21.851h8.447l-7.003 32.931h-8.081L37.68 978.869z" class="a"/><path d="M60.172 939.016h8.448l-9.293 43.709h-8.448L60.172 939.016z" class="a"/><path d="M74.864 939.016h8.447l-9.292 43.709h-8.448L74.864 939.016z" class="a"/><path d="M101.624 961.426l-1.534 7.224H82.83l1.535-7.224H101.624z" class="a"/><path d="M111.08 971.954l-0.232 1.103c-0.612 2.877 0.515 4.775 3.392 4.775 2.571 0 4.559-1.281 5.117-3.918 0.458-2.139-0.742-3.122-2.265-3.735l-5.48-2.138c-4.302-1.653-6.077-4.531-5.089-9.184 1.158-5.447 5.533-9.916 14.227-9.916 7.651 0 10.533 3.428 9.272 9.366l-0.286 1.347h-7.591c0.702-3.311 0.078-4.963-2.682-4.963 -2.143 0-4.24 1.229-4.733 3.551 -0.339 1.596 0.232 2.942 2.853 3.855l4.718 1.716c4.946 1.774 6.334 4.469 5.28 9.427 -1.469 6.918-7.342 10.346-14.442 10.346 -9.489 0-11.235-4.162-9.893-10.465l0.248-1.162h7.587V971.954z" class="a"/><path d="M140.628 940.362h8.448l-2.004 9.432h4.897l-1.225 5.749h-4.896l-3.787 17.816c-0.548 2.57-0.217 3.611 2.232 3.611 0.673 0 1.358-0.062 1.922-0.119l-1.249 5.873c-1.873 0.184-3.628 0.367-5.588 0.367 -6.611 0-7.403-2.02-5.986-8.693l4.008-18.855h-4.285l1.224-5.749h4.286L140.628 940.362z" class="a"/><path d="M152.701 959.895l0.171-0.796c1.616-7.587 7.366-10.157 13.729-10.157 10.039 0 11.052 4.163 9.79 10.101l-3.681 17.324c-0.653 3.062-0.768 4.469-0.314 6.366h-8.081c-0.33-1.039-0.302-2.325-0.314-3.428h-0.122c-2.689 3.428-5.257 4.285-9.297 4.285 -5.877 0-6.89-5.016-5.954-9.428 1.313-6.187 4.358-8.693 10.513-10.288l5.049-1.282c2.652-0.673 3.718-1.652 4.187-3.856 0.535-2.509-0.244-4.04-3.061-4.04 -2.571 0-4.281 1.714-4.828 4.289l-0.195 0.918h-7.591V959.895zM166.772 966.258c-1.347 0.857-2.869 1.412-3.963 1.652 -3.583 0.734-5.281 2.387-5.909 5.326 -0.531 2.51-0.058 4.592 2.207 4.592 2.266 0 5.519-1.466 6.285-5.081L166.772 966.258z" class="a"/><path d="M197.684 961.666c0.677-3.18 0.791-6.607-2.388-6.607 -4.163 0-5.615 3.669-7.231 11.264 -1.73 8.139-1.71 11.506 2.085 11.506 2.816 0 4.607-2.389 5.742-7.714h8.081c-1.837 8.632-6.477 13.468-15.415 13.468 -8.447 0-11.737-4.102-8.925-17.324 2.877-13.525 9.252-17.32 17.026-17.32s10.758 4.958 9.105 12.729H197.684z" class="a"/><path d="M223.742 939.016l-4.906 23.079h0.123l11.125-12.304h9.306l-12.248 12.978 6.652 19.956h-9.306l-4.167-13.525 -3.832 3.918 -2.04 9.607h-8.448l9.293-43.709H223.742z" class="a"/><path d="M268.941 979.24h-0.123c-2.485 3.057-5.085 4.342-8.391 4.342 -6.917 0-9.02-5.08-6.415-17.324 2.604-12.244 6.864-17.32 13.782-17.32 3.183 0 5.052 1.281 6.269 3.917h0.122l2.942-13.839h8.448l-9.293 43.709h-8.08L268.941 979.24zM264.562 977.094c3.734 0 5.249-3.674 6.771-10.836 1.522-7.163 1.566-10.832-2.163-10.832 -3.674 0-5.188 3.669-6.714 10.832C260.93 973.42 260.885 977.094 264.562 977.094z" class="a"/><path d="M292.363 967.547l-0.559 2.632c-0.82 3.858-0.588 7.653 2.534 7.653 2.815 0 4.436-2.139 5.783-6.184h7.591c-1.935 7.652-6.518 11.938-14.472 11.938 -12.244 0-10.73-9.427-8.987-17.626 1.873-8.815 5.334-17.019 16.721-17.019 9.856 0 10.652 6.607 8.506 16.712l-0.405 1.897h-16.712V967.547zM302.064 962.523c0.881-5.016 0.869-7.837-2.62-7.837 -3.367 0-5.09 3.489-5.738 6.552l-0.273 1.28h8.632V962.523z" class="a"/><path d="M332.869 949.794h8.448l-15.264 32.931h-9.795l-1.51-32.931h8.815l-0.298 23.565h0.122L332.869 949.794z" class="a"/><path d="M347.889 967.547l-0.56 2.632c-0.82 3.858-0.588 7.653 2.534 7.653 2.816 0 4.437-2.139 5.783-6.184h7.591c-1.935 7.652-6.518 11.938-14.472 11.938 -12.244 0-10.729-9.427-8.987-17.626 1.874-8.815 5.334-17.019 16.721-17.019 9.856 0 10.652 6.607 8.505 16.712l-0.403 1.897h-16.712V967.547zM357.585 962.523c0.882-5.016 0.869-7.837-2.62-7.837 -3.367 0-5.089 3.489-5.738 6.552l-0.273 1.28h8.632V962.523z" class="a"/><path d="M375.379 939.016h8.448l-9.293 43.709h-8.448L375.379 939.016z" class="a"/><path d="M399.531 948.938c10.203-0.185 11.729 5.871 9.293 17.32 -2.392 11.264-6.987 17.324-16.659 17.324 -10.203 0.184-11.729-5.873-9.293-17.324C385.264 954.993 389.859 948.938 399.531 948.938zM393.39 977.828c3.428 0 5.244-3.367 6.99-11.57 1.743-8.204 1.359-11.571-2.069-11.571 -4.166 0-5.558 4.841-6.99 11.571C389.888 972.992 389.227 977.828 393.39 977.828z" class="a"/><path d="M416.86 949.794h8.08l-0.747 3.485h0.123c2.486-3.061 5.086-4.342 8.396-4.342 6.917 0 9.02 5.076 6.415 17.32 -2.607 12.244-6.868 17.324-13.782 17.324 -3.188 0-5.053-1.285-6.272-3.918h-0.118l-2.943 13.836h-8.447L416.86 949.794zM423.969 977.094c3.674 0 5.188-3.674 6.714-10.836 1.527-7.163 1.571-10.832-2.106-10.832 -3.729 0-5.247 3.669-6.771 10.832C420.284 973.42 420.239 977.094 423.969 977.094z" class="a"/><path d="M450.917 967.547l-0.562 2.632c-0.82 3.858-0.588 7.653 2.534 7.653 2.816 0 4.437-2.139 5.783-6.184h7.587c-1.931 7.652-6.514 11.938-14.472 11.938 -12.244 0-10.729-9.427-8.986-17.626 1.877-8.815 5.334-17.019 16.725-17.019 9.853 0 10.647 6.607 8.504 16.712l-0.407 1.897h-16.705V967.547zM460.614 962.523c0.882-5.016 0.869-7.837-2.62-7.837 -3.366 0-5.089 3.489-5.738 6.552l-0.273 1.28h8.632V962.523z" class="a"/><path d="M475.813 949.794h8.077l-0.936 4.407h0.118c2.392-3.184 5.22-5.264 8.713-5.264 0.486 0 1.028 0.061 1.507 0.117l-1.723 8.082c-0.844-0.066-1.746-0.123-2.607-0.123 -2.938 0-6.567 1.529-7.506 5.938l-4.203 19.773h-8.448L475.813 949.794z" class="a"/><path d="M22.901 866.998v6.669c0 9.771 2.638 19.386 10.542 19.386 7.134 0 10.081-5.428 11.321-15.664h19.227c-0.775 19.383-10.08 30.238-30.237 30.238 -31.013 0-32.254-23.883-32.254-44.656 0-22.333 4.343-43.105 33.185-43.105 24.965 0 30.548 16.749 30.548 42.33v4.807H22.901V866.998zM44.765 854.285c-0.465-12.713-2.016-19.847-10.855-19.847 -8.53 0-11.011 8.84-11.011 16.591v3.256H44.765z" class="b"/><path d="M76.406 822.027h20.472v11.167h0.31c4.343-8.065 10.392-13.338 19.228-13.338 1.24 0 2.636 0.155 3.876 0.311v20.468c-2.17-0.156-4.497-0.311-6.668-0.311 -7.444 0-15.815 3.877-15.815 15.043v50.085H76.406V822.027z" class="b"/><path d="M128.825 793.5h21.402v18.296h-21.402V793.5zM128.825 822.027h21.402v83.425h-21.402V822.027z" class="b"/><path d="M205.434 852.11c0-8.064-1.551-16.749-9.615-16.749 -10.542 0-12.248 9.305-12.248 28.531 0 20.627 1.861 29.156 11.477 29.156 7.134 0 10.391-6.049 10.391-19.541h20.468c0 21.863-9.15 34.115-31.788 34.115 -21.398 0-31.944-10.392-31.944-43.885 0-34.267 14.113-43.882 33.805-43.882s29.928 12.558 29.928 32.249h-20.472V852.11z" class="b"/><path d="M256.236 822.035h20.472v9.775h0.31c4.498-8.221 12.248-11.941 21.247-11.941 13.334 0 21.242 7.285 21.242 23.72v61.871h-21.397v-57.524c0-8.375-2.791-11.632-9.149-11.632 -7.289 0-11.317 4.497-11.317 13.798v55.358H256.24v-83.425H256.236z" class="a"/><path d="M363.861 819.869c25.741-0.466 32.874 14.883 32.874 43.881 0 28.531-8.374 43.885-32.874 43.885 -25.739 0.461-32.873-14.884-32.873-43.885C330.991 835.219 339.362 819.869 363.861 819.869zM363.861 893.061c8.682 0 11.477-8.529 11.477-29.311 0-20.777-2.791-29.307-11.477-29.307 -10.541 0-11.477 12.252-11.477 29.307C352.39 880.809 353.32 893.061 363.861 893.061z" class="a"/><path d="M408.216 822.035h20.472v11.167h0.311c4.343-8.064 10.39-13.337 19.227-13.337 1.244 0 2.636 0.154 3.876 0.31v20.468c-2.17-0.156-4.497-0.311-6.668-0.311 -7.444 0-15.814 3.877-15.814 15.043v50.085h-21.402V822.035L408.216 822.035z" class="a"/><path d="M500.027 852.119c0-8.064-1.552-16.75-9.615-16.75 -10.543 0-12.249 9.305-12.249 28.531 0 20.627 1.861 29.156 11.477 29.156 7.134 0 10.392-6.049 10.392-19.541h20.466c0 21.863-9.146 34.115-31.787 34.115 -21.395 0-31.939-10.391-31.939-43.885 0-34.266 14.108-43.881 33.805-43.881 19.688 0 29.922 12.557 29.922 32.249h-20.47V852.119z" class="a"/><path d="M531.669 822.035h20.472v11.167h0.309c4.339-8.064 10.388-13.337 19.228-13.337 1.244 0 2.637 0.154 3.873 0.31v20.468c-2.168-0.156-4.498-0.311-6.664-0.311 -7.445 0-15.815 3.877-15.815 15.043v50.085h-21.401V822.035L531.669 822.035z" class="a"/><path d="M613.394 819.869c25.74-0.466 32.875 14.883 32.875 43.881 0 28.531-8.379 43.885-32.873 43.885 -25.745 0.461-32.875-14.884-32.875-43.885C580.521 835.219 588.892 819.869 613.394 819.869zM613.394 893.061c8.682 0 11.473-8.529 11.473-29.311 0-20.777-2.791-29.307-11.473-29.307 -10.545 0-11.475 12.252-11.475 29.307C601.914 880.809 602.849 893.061 613.394 893.061z" class="a"/><path d="M673.408 878.169v2.796c0 7.284 3.882 12.096 11.166 12.096 6.515 0 10.856-3.261 10.856-9.926 0-5.428-3.571-7.908-7.755-9.46l-15.042-5.428c-11.783-4.183-17.832-11.476-17.832-23.255 0-13.803 8.681-25.119 30.704-25.119 19.377 0 28.526 8.681 28.526 23.72v3.411h-19.226c0-8.374-2.478-12.557-9.46-12.557 -5.424 0-10.077 3.102-10.077 8.994 0 4.029 2.167 7.44 9.301 9.771l12.868 4.339c13.493 4.497 18.451 11.316 18.451 23.883 0 17.521-13.023 26.205-31.013 26.205 -24.034 0-30.702-10.545-30.702-26.516v-2.95h19.233V878.169z" class="a"/><path d="M742.267 878.169v2.796c0 7.284 3.877 12.096 11.162 12.096 6.513 0 10.855-3.261 10.855-9.926 0-5.428-3.566-7.908-7.754-9.46l-15.044-5.428c-11.781-4.183-17.83-11.476-17.83-23.255 0-13.803 8.685-25.119 30.702-25.119 19.382 0 28.528 8.681 28.528 23.72v3.411h-19.226c0-8.374-2.478-12.557-9.458-12.557 -5.424 0-10.079 3.102-10.079 8.994 0 4.029 2.171 7.44 9.301 9.771l12.872 4.339c13.488 4.497 18.451 11.316 18.451 23.883 0 17.521-13.023 26.205-31.018 26.205 -24.034 0-30.699-10.545-30.699-26.516v-2.95h19.235V878.169z" class="a"/></svg>
