<svg xmlns="http://www.w3.org/2000/svg" viewBox="0 0 390.369 101.681">
<g>
	<g>
		<path fill="#010101" d="M76.948,81.307h-2.127l0.607-2.855h2.126l0.394-1.854c0.626-2.946,2.503-3.919,5.207-3.919
			c0.76,0,1.482,0.03,2.229,0.092l-0.633,2.977c-0.267-0.03-0.54-0.03-0.813-0.03c-1.185,0-1.688,0.365-1.888,1.307l-0.303,1.428
			h2.43l-0.607,2.855h-2.43l-2.866,13.489h-4.192L76.948,81.307z"/>
		<path fill="#010101" d="M90.957,92.882h-0.061c-1.223,1.61-2.897,2.34-4.659,2.34c-2.613,0-3.859-1.429-3.175-4.648l2.576-12.122
			h4.192l-2.395,11.271c-0.349,1.641,0.062,2.278,1.308,2.278c1.428,0,2.405-0.881,2.792-2.704l2.304-10.846h4.192L94.56,94.796
			h-4.01L90.957,92.882z"/>
		<path fill="#010101" d="M102.119,73.104h4.193l-4.609,21.691H97.51L102.119,73.104z"/>
		<path fill="#010101" d="M109.411,73.104h4.193l-4.609,21.691h-4.192L109.411,73.104z"/>
		<path fill="#010101" d="M122.696,84.224l-0.761,3.585h-8.567l0.762-3.585H122.696z"/>
		<path fill="#010101" d="M127.391,89.449l-0.116,0.547c-0.304,1.428,0.256,2.369,1.684,2.369c1.276,0,2.262-0.638,2.54-1.944
			c0.226-1.063-0.37-1.549-1.125-1.853l-2.721-1.063c-2.135-0.82-3.016-2.248-2.526-4.558c0.575-2.703,2.747-4.921,7.061-4.921
			c3.797,0,5.229,1.701,4.603,4.647l-0.142,0.669h-3.767c0.349-1.641,0.037-2.461-1.331-2.461c-1.063,0-2.104,0.607-2.349,1.762
			c-0.167,0.79,0.116,1.458,1.417,1.914l2.341,0.851c2.456,0.881,3.144,2.218,2.621,4.679c-0.729,3.433-3.643,5.135-7.167,5.135
			c-4.709,0-5.576-2.066-4.912-5.195l0.123-0.577H127.391z"/>
		<path fill="#010101" d="M142.056,73.772h4.192l-0.994,4.679h2.43l-0.607,2.855h-2.43l-1.878,8.841
			c-0.271,1.276-0.107,1.793,1.108,1.793c0.334,0,0.675-0.03,0.955-0.062l-0.62,2.917c-0.931,0.091-1.801,0.183-2.773,0.183
			c-3.281,0-3.675-1.003-2.972-4.314l1.988-9.357h-2.127l0.607-2.855h2.126L142.056,73.772z"/>
		<path fill="#010101" d="M148.049,83.464l0.084-0.395c0.8-3.768,3.654-5.043,6.813-5.043c4.982,0,5.485,2.065,4.859,5.013
			l-1.826,8.598c-0.323,1.519-0.38,2.218-0.155,3.159h-4.01c-0.164-0.517-0.15-1.154-0.155-1.701h-0.061
			c-1.333,1.701-2.609,2.127-4.614,2.127c-2.916,0-3.42-2.491-2.955-4.679c0.652-3.068,2.162-4.314,5.216-5.104l2.505-0.638
			c1.316-0.334,1.845-0.82,2.078-1.914c0.265-1.245-0.121-2.005-1.519-2.005c-1.276,0-2.125,0.851-2.396,2.127l-0.097,0.455H148.049
			z M155.034,86.624c-0.667,0.425-1.424,0.698-1.967,0.82c-1.779,0.364-2.622,1.185-2.931,2.643
			c-0.265,1.246-0.028,2.278,1.096,2.278s2.737-0.729,3.118-2.521L155.034,86.624z"/>
		<path fill="#010101" d="M170.376,84.345c0.335-1.579,0.393-3.28-1.187-3.28c-2.066,0-2.787,1.822-3.588,5.59
			c-0.858,4.04-0.849,5.711,1.035,5.711c1.397,0,2.287-1.185,2.849-3.828h4.01c-0.91,4.284-3.212,6.685-7.648,6.685
			c-4.192,0-5.826-2.036-4.432-8.598c1.426-6.715,4.591-8.598,8.449-8.598s5.341,2.46,4.521,6.318H170.376z"/>
		<path fill="#010101" d="M183.31,73.104l-2.434,11.453h0.061l5.52-6.106h4.618l-6.077,6.44l3.303,9.904h-4.618l-2.067-6.714
			l-1.901,1.944l-1.014,4.77h-4.192l4.608-21.691H183.31z"/>
		<path fill="#010101" d="M205.748,93.064h-0.061c-1.234,1.519-2.524,2.157-4.165,2.157c-3.433,0-4.477-2.522-3.186-8.598
			c1.291-6.076,3.406-8.598,6.839-8.598c1.58,0,2.508,0.638,3.111,1.944h0.061l1.458-6.866h4.193l-4.609,21.691h-4.01
			L205.748,93.064z M203.573,92.001c1.854,0,2.605-1.823,3.36-5.377c0.755-3.555,0.778-5.378-1.075-5.378
			c-1.823,0-2.575,1.823-3.33,5.378C201.773,90.178,201.75,92.001,203.573,92.001z"/>
		<path fill="#010101" d="M217.374,87.262l-0.277,1.307c-0.407,1.913-0.291,3.797,1.259,3.797c1.397,0,2.201-1.063,2.87-3.068h3.767
			c-0.958,3.798-3.233,5.925-7.183,5.925c-6.076,0-5.325-4.679-4.46-8.75c0.929-4.375,2.645-8.445,8.295-8.445
			c4.891,0,5.288,3.28,4.223,8.293l-0.2,0.942H217.374z M222.187,84.771c0.438-2.491,0.431-3.889-1.3-3.889
			c-1.671,0-2.525,1.731-2.848,3.251l-0.136,0.638H222.187z"/>
		<path fill="#010101" d="M237.477,78.451h4.192l-7.574,16.345h-4.861l-0.75-16.345h4.375l-0.146,11.696h0.061L237.477,78.451z"/>
		<path fill="#010101" d="M244.934,87.262l-0.277,1.307c-0.407,1.913-0.291,3.797,1.259,3.797c1.397,0,2.201-1.063,2.87-3.068h3.767
			c-0.958,3.798-3.233,5.925-7.183,5.925c-6.076,0-5.325-4.679-4.46-8.75c0.929-4.375,2.645-8.445,8.295-8.445
			c4.891,0,5.288,3.28,4.223,8.293l-0.2,0.942H244.934z M249.747,84.771c0.438-2.491,0.431-3.889-1.3-3.889
			c-1.671,0-2.525,1.731-2.848,3.251l-0.136,0.638H249.747z"/>
		<path fill="#010101" d="M258.577,73.104h4.193l-4.609,21.691h-4.192L258.577,73.104z"/>
		<path fill="#010101" d="M270.566,78.026c5.062-0.092,5.821,2.916,4.614,8.598c-1.188,5.59-3.467,8.598-8.268,8.598
			c-5.062,0.091-5.821-2.917-4.614-8.598C263.486,81.033,265.766,78.026,270.566,78.026z M267.52,92.365
			c1.701,0,2.603-1.671,3.468-5.741c0.865-4.071,0.673-5.742-1.028-5.742c-2.066,0-2.758,2.4-3.468,5.742
			S265.454,92.365,267.52,92.365z"/>
		<path fill="#010101" d="M279.167,78.451h4.011l-0.368,1.731h0.061c1.234-1.519,2.524-2.156,4.165-2.156
			c3.433,0,4.477,2.521,3.187,8.598c-1.291,6.075-3.407,8.598-6.84,8.598c-1.58,0-2.508-0.639-3.111-1.944h-0.061l-1.459,6.865
			h-4.192L279.167,78.451z M282.7,92.001c1.822,0,2.574-1.823,3.329-5.377c0.756-3.555,0.778-5.378-1.045-5.378
			c-1.853,0-2.604,1.823-3.359,5.378C280.869,90.178,280.846,92.001,282.7,92.001z"/>
		<path fill="#010101" d="M296.074,87.262l-0.277,1.307c-0.407,1.913-0.29,3.797,1.259,3.797c1.397,0,2.201-1.063,2.87-3.068h3.767
			c-0.958,3.798-3.233,5.925-7.183,5.925c-6.076,0-5.325-4.679-4.46-8.75c0.93-4.375,2.645-8.445,8.296-8.445
			c4.891,0,5.287,3.28,4.223,8.293l-0.2,0.942H296.074z M300.886,84.771c0.438-2.491,0.432-3.889-1.3-3.889
			c-1.671,0-2.525,1.731-2.848,3.251l-0.136,0.638H300.886z"/>
		<path fill="#010101" d="M308.43,78.451h4.01l-0.465,2.188h0.062c1.186-1.58,2.59-2.612,4.322-2.612c0.242,0,0.51,0.03,0.746,0.061
			l-0.852,4.01c-0.42-0.03-0.869-0.061-1.295-0.061c-1.457,0-3.26,0.76-3.725,2.947l-2.084,9.812h-4.193L308.43,78.451z"/>
	</g>
	<g>
		<path fill="#8A9298" d="M12.625,37.351v3.31c0,4.85,1.309,9.623,5.234,9.623c3.541,0,5.004-2.694,5.62-7.775h9.546
			c-0.385,9.623-5.004,15.012-15.011,15.012c-15.396,0-16.012-11.855-16.012-22.171c0-11.085,2.155-21.4,16.474-21.4
			c12.394,0,15.166,8.314,15.166,21.016v2.386H12.625z M23.479,31.039c-0.231-6.312-1-9.854-5.389-9.854
			c-4.234,0-5.465,4.388-5.465,8.237v1.616H23.479z"/>
		<path fill="#8A9298" d="M38.875,15.027h10.162v5.542h0.154c2.155-4.003,5.158-6.62,9.546-6.62c0.616,0,1.309,0.077,1.924,0.154
			v10.162c-1.078-0.077-2.232-0.154-3.31-0.154c-3.695,0-7.852,1.925-7.852,7.467v24.865H38.875V15.027z"/>
		<path fill="#8A9298" d="M64.585,0.862h10.624v9.084H64.585V0.862z M64.585,15.027h10.624v41.416H64.585V15.027z"/>
		<path fill="#8A9298" d="M102.305,29.961c0-4.003-0.77-8.314-4.773-8.314c-5.234,0-6.081,4.619-6.081,14.165
			c0,10.238,0.924,14.473,5.696,14.473c3.541,0,5.158-3.002,5.158-9.7h10.162c0,10.854-4.542,16.936-15.781,16.936
			c-10.623,0-15.858-5.158-15.858-21.786c0-17.013,7.005-21.785,16.782-21.785s14.857,6.235,14.857,16.012H102.305z"/>
	</g>
	<g>
		<path fill="#010101" d="M128.445,15.029h10.162v4.85h0.154c2.232-4.08,6.082-5.927,10.546-5.927
			c6.62,0,10.546,3.618,10.546,11.778v30.715h-10.624v-28.56c0-4.157-1.385-5.774-4.542-5.774c-3.618,0-5.62,2.232-5.62,6.852
			v27.482h-10.624V15.029z"/>
		<path fill="#010101" d="M181.562,13.951c12.778-0.231,16.32,7.39,16.32,21.785c0,14.165-4.157,21.786-16.32,21.786
			c-12.779,0.23-16.32-7.391-16.32-21.786C165.241,21.572,169.398,13.951,181.562,13.951z M181.562,50.286
			c4.311,0,5.696-4.234,5.696-14.55c0-10.315-1.386-14.549-5.696-14.549c-5.235,0-5.697,6.082-5.697,14.549
			C175.865,44.205,176.327,50.286,181.562,50.286z"/>
		<path fill="#010101" d="M203.269,15.029h10.162v5.542h0.154c2.155-4.003,5.157-6.62,9.545-6.62c0.616,0,1.309,0.077,1.925,0.154
			v10.162c-1.078-0.077-2.232-0.154-3.311-0.154c-3.694,0-7.852,1.925-7.852,7.467v24.865h-10.624V15.029z"/>
		<path fill="#010101" d="M248.533,29.963c0-4.003-0.771-8.314-4.773-8.314c-5.234,0-6.081,4.619-6.081,14.165
			c0,10.238,0.924,14.473,5.696,14.473c3.541,0,5.158-3.002,5.158-9.7h10.161c0,10.854-4.542,16.936-15.781,16.936
			c-10.623,0-15.857-5.158-15.857-21.786c0-17.013,7.005-21.785,16.781-21.785s14.857,6.235,14.857,16.012H248.533z"/>
		<path fill="#010101" d="M263.929,15.029h10.161v5.542h0.154c2.155-4.003,5.158-6.62,9.546-6.62c0.615,0,1.309,0.077,1.924,0.154
			v10.162c-1.077-0.077-2.232-0.154-3.31-0.154c-3.695,0-7.853,1.925-7.853,7.467v24.865h-10.623V15.029z"/>
		<path fill="#010101" d="M304.188,13.951c12.778-0.231,16.319,7.39,16.319,21.785c0,14.165-4.156,21.786-16.319,21.786
			c-12.779,0.23-16.32-7.391-16.32-21.786C287.868,21.572,292.025,13.951,304.188,13.951z M304.188,50.286
			c4.311,0,5.696-4.234,5.696-14.55c0-10.315-1.386-14.549-5.696-14.549c-5.235,0-5.697,6.082-5.697,14.549
			C298.491,44.205,298.953,50.286,304.188,50.286z"/>
		<path fill="#010101" d="M333.672,42.896v1.386c0,3.618,1.924,6.005,5.542,6.005c3.233,0,5.389-1.617,5.389-4.927
			c0-2.694-1.771-3.926-3.849-4.696l-7.467-2.694c-5.851-2.078-8.854-5.696-8.854-11.547c0-6.851,4.312-12.471,15.242-12.471
			c9.623,0,14.165,4.311,14.165,11.778v1.694h-9.546c0-4.157-1.231-6.236-4.695-6.236c-2.694,0-5.004,1.54-5.004,4.465
			c0,2.001,1.077,3.695,4.618,4.85l6.39,2.155c6.697,2.232,9.161,5.62,9.161,11.855c0,8.699-6.467,13.01-15.396,13.01
			c-11.932,0-15.242-5.235-15.242-13.164v-1.463H333.672z"/>
		<path fill="#010101" d="M367.541,42.896v1.386c0,3.618,1.924,6.005,5.542,6.005c3.233,0,5.389-1.617,5.389-4.927
			c0-2.694-1.771-3.926-3.849-4.696l-7.467-2.694c-5.851-2.078-8.854-5.696-8.854-11.547c0-6.851,4.312-12.471,15.242-12.471
			c9.623,0,14.165,4.311,14.165,11.778v1.694h-9.546c0-4.157-1.231-6.236-4.695-6.236c-2.694,0-5.004,1.54-5.004,4.465
			c0,2.001,1.077,3.695,4.618,4.85l6.39,2.155c6.697,2.232,9.161,5.62,9.161,11.855c0,8.699-6.467,13.01-15.396,13.01
			c-11.932,0-15.242-5.235-15.242-13.164v-1.463H367.541z"/>
	</g>
</g>
</svg>
