<svg xmlns="http://www.w3.org/2000/svg" width="610" height="156" viewBox="-0.5 -0.5 610 156"><style>.a{fill:#010101;}.b{fill:#8A9298;}</style><path d="M8.199 125.396H4.882l0.948-4.449h3.316l0.616-2.89c0.976-4.596 3.904-6.114 8.12-6.114 1.184 0 2.312 0.05 3.474 0.142l-0.985 4.646c-0.417-0.05-0.843-0.05-1.266-0.05 -1.848 0-2.631 0.571-2.943 2.04l-0.474 2.227h3.79l-0.947 4.449h-3.79l-4.472 21.034H3.727L8.199 125.396z" class="a"/><path d="M30.038 143.445h-0.095c-1.908 2.511-4.516 3.647-7.264 3.647 -4.074 0-6.016-2.227-4.949-7.248l4.017-18.898h6.538l-3.736 17.572c-0.543 2.558 0.098 3.553 2.04 3.553 2.227 0 3.749-1.374 4.352-4.216l3.597-16.909h6.537l-5.419 25.483h-6.253L30.038 143.445z" class="a"/><path d="M47.442 112.605h6.538l-7.191 33.824h-6.538L47.442 112.605z" class="a"/><path d="M58.812 112.605h6.537l-7.191 33.824h-6.538L58.812 112.605z" class="a"/><path d="M79.52 129.947l-1.188 5.59H64.977l1.188-5.59H79.52z" class="a"/><path d="M86.837 138.095l-0.18 0.853c-0.474 2.227 0.398 3.695 2.625 3.695 1.989 0 3.527-0.991 3.96-3.031 0.354-1.655-0.575-2.416-1.752-2.891l-4.242-1.654c-3.329-1.279-4.703-3.506-3.938-7.106 0.896-4.216 4.282-7.674 11.009-7.674 5.921 0 8.151 2.652 7.175 7.248l-0.221 1.042h-5.874c0.543-2.562 0.06-3.84-2.075-3.84 -1.658 0-3.281 0.95-3.663 2.747 -0.262 1.235 0.18 2.277 2.208 2.984l3.651 1.327c3.828 1.373 4.901 3.458 4.086 7.295 -1.137 5.354-5.682 8.006-11.177 8.006 -7.343 0-8.694-3.221-7.655-8.098l0.192-0.899h5.871V138.095z" class="a"/><path d="M109.703 113.647h6.538l-1.551 7.299h3.79l-0.948 4.449h-3.79l-2.931 13.786c-0.423 1.989-0.167 2.795 1.728 2.795 0.521 0 1.051-0.048 1.487-0.092l-0.966 4.545c-1.45 0.142-2.808 0.284-4.324 0.284 -5.116 0-5.729-1.563-4.633-6.728l3.101-14.591h-3.316l0.947-4.449h3.316L109.703 113.647z" class="a"/><path d="M119.045 128.763l0.132-0.616c1.251-5.871 5.701-7.86 10.625-7.86 7.769 0 8.552 3.222 7.576 7.816l-2.849 13.406c-0.505 2.369-0.594 3.458-0.243 4.927h-6.253c-0.255-0.805-0.233-1.8-0.243-2.652h-0.095c-2.081 2.652-4.067 3.315-7.194 3.315 -4.548 0-5.331-3.881-4.607-7.295 1.017-4.788 3.373-6.728 8.135-7.962l3.907-0.992c2.053-0.521 2.877-1.278 3.24-2.984 0.414-1.941-0.189-3.126-2.369-3.126 -1.99 0-3.313 1.326-3.736 3.319l-0.152 0.71h-5.874V128.763zM129.934 133.687c-1.042 0.663-2.22 1.093-3.066 1.278 -2.773 0.568-4.087 1.848-4.573 4.122 -0.411 1.942-0.044 3.553 1.708 3.553 1.753 0 4.27-1.134 4.864-3.932L129.934 133.687z" class="a"/><path d="M153.854 130.133c0.524-2.46 0.612-5.112-1.848-5.112 -3.222 0-4.346 2.839-5.596 8.716 -1.339 6.298-1.323 8.903 1.614 8.903 2.179 0 3.565-1.848 4.443-5.969h6.253c-1.421 6.68-5.012 10.422-11.929 10.422 -6.537 0-9.083-3.174-6.907-13.406 2.227-10.467 7.16-13.403 13.176-13.403 6.017 0 8.325 3.837 7.046 9.85H153.854z" class="a"/><path d="M174.02 112.605l-3.796 17.859h0.095l8.609-9.521h7.201l-9.478 10.043 5.148 15.443h-7.201l-3.225-10.467 -2.965 3.032 -1.579 7.435h-6.538l7.191-33.824H174.02z" class="a"/><path d="M208.996 143.732h-0.095c-1.923 2.365-3.935 3.36-6.493 3.36 -5.353 0-6.979-3.932-4.964-13.406 2.015-9.475 5.312-13.403 10.665-13.403 2.463 0 3.91 0.991 4.851 3.031h0.095l2.277-10.709h6.538l-7.191 33.824h-6.253L208.996 143.732zM205.607 142.071c2.89 0 4.062-2.843 5.24-8.385 1.178-5.543 1.212-8.382-1.674-8.382 -2.842 0-4.014 2.839-5.195 8.382C202.797 139.229 202.762 142.071 205.607 142.071z" class="a"/><path d="M227.121 134.685l-0.433 2.036c-0.635 2.985-0.455 5.922 1.961 5.922 2.179 0 3.433-1.654 4.475-4.784h5.874c-1.497 5.921-5.043 9.237-11.199 9.237 -9.475 0-8.303-7.295-6.955-13.64 1.45-6.822 4.128-13.17 12.939-13.17 7.627 0 8.243 5.113 6.582 12.933l-0.313 1.469h-12.933V134.685zM234.628 130.797c0.682-3.882 0.673-6.064-2.027-6.064 -2.605 0-3.938 2.7-4.44 5.069l-0.211 0.991h6.679V130.797z" class="a"/><path d="M258.466 120.946h6.537l-11.812 25.483h-7.58l-1.168-25.483h6.822l-0.23 18.235h0.095L258.466 120.946z" class="a"/><path d="M270.088 134.685l-0.433 2.036c-0.635 2.985-0.455 5.922 1.961 5.922 2.179 0 3.433-1.654 4.475-4.784h5.875c-1.497 5.921-5.044 9.237-11.199 9.237 -9.475 0-8.303-7.295-6.954-13.64 1.45-6.822 4.127-13.17 12.939-13.17 7.627 0 8.243 5.113 6.582 12.933l-0.312 1.469h-12.933V134.685zM277.592 130.797c0.682-3.882 0.672-6.064-2.028-6.064 -2.605 0-3.938 2.7-4.44 5.069l-0.211 0.991h6.68V130.797z" class="a"/><path d="M291.362 112.605h6.538l-7.191 33.824h-6.538L291.362 112.605z" class="a"/><path d="M310.052 120.283c7.896-0.143 9.077 4.544 7.191 13.403 -1.851 8.716-5.407 13.406-12.892 13.406 -7.896 0.142-9.077-4.545-7.191-13.406C299.011 124.97 302.567 120.283 310.052 120.283zM305.299 142.64c2.653 0 4.059-2.605 5.41-8.953 1.349-6.349 1.052-8.954-1.602-8.954 -3.224 0-4.301 3.746-5.41 8.954C302.589 138.897 302.078 142.64 305.299 142.64z" class="a"/><path d="M323.462 120.946h6.253l-0.578 2.697h0.095c1.924-2.369 3.936-3.36 6.497-3.36 5.353 0 6.979 3.929 4.964 13.403 -2.018 9.475-5.314 13.406-10.665 13.406 -2.467 0-3.91-0.995-4.854-3.032h-0.092l-2.277 10.707h-6.537L323.462 120.946zM328.963 142.071c2.843 0 4.015-2.843 5.195-8.385 1.182-5.543 1.216-8.382-1.63-8.382 -2.886 0-4.061 2.839-5.239 8.382C326.111 139.229 326.076 142.071 328.963 142.071z" class="a"/><path d="M349.816 134.685l-0.436 2.036c-0.635 2.985-0.455 5.922 1.961 5.922 2.18 0 3.434-1.654 4.476-4.784h5.871c-1.494 5.921-5.041 9.237-11.199 9.237 -9.475 0-8.303-7.295-6.954-13.64 1.453-6.822 4.128-13.17 12.942-13.17 7.624 0 8.239 5.113 6.581 12.933l-0.315 1.469h-12.927V134.685zM357.32 130.797c0.683-3.882 0.673-6.064-2.027-6.064 -2.605 0-3.938 2.7-4.44 5.069l-0.212 0.991h6.68V130.797z" class="a"/><path d="M369.082 120.946h6.25l-0.724 3.41h0.092c1.851-2.463 4.039-4.073 6.742-4.073 0.376 0 0.796 0.047 1.166 0.091l-1.333 6.254c-0.653-0.051-1.352-0.095-2.018-0.095 -2.274 0-5.082 1.184-5.809 4.595l-3.253 15.302h-6.537L369.082 120.946z" class="a"/><path d="M18.602 56.876v5.16c0 7.561 2.041 15.001 8.158 15.001 5.521 0 7.801-4.2 8.761-12.121h14.878C49.798 79.915 42.598 88.315 27 88.315 3 88.315 2.04 69.834 2.04 53.759c0-17.282 3.36-33.357 25.679-33.357 19.319 0 23.639 12.961 23.639 32.757v3.72H18.602V56.876zM35.52 47.038C35.16 37.2 33.96 31.68 27.119 31.68c-6.601 0-8.521 6.841-8.521 12.838v2.52H35.52z" class="b"/><path d="M60.005 22.076h15.842v8.641h0.24c3.36-6.241 8.041-10.321 14.878-10.321 0.96 0 2.04 0.12 3 0.24v15.838c-1.68-0.12-3.48-0.24-5.16-0.24 -5.761 0-12.238 3-12.238 11.641v38.758H60.005V22.076z" class="b"/><path d="M100.569 0h16.562v14.158h-16.562V0zM100.569 22.076h16.562v64.557h-16.562V22.076z" class="b"/><path d="M159.852 45.355c0-6.241-1.2-12.961-7.44-12.961 -8.158 0-9.478 7.201-9.478 22.079 0 15.961 1.44 22.562 8.881 22.562 5.521 0 8.041-4.681 8.041-15.122h15.838c0 16.918-7.081 26.399-24.599 26.399 -16.559 0-24.719-8.041-24.719-33.96 0-26.516 10.921-33.957 26.159-33.957s23.159 9.718 23.159 24.956h-15.842V45.355z" class="b"/><path d="M199.165 22.082h15.841v7.564h0.24c3.48-6.361 9.478-9.241 16.442-9.241 10.318 0 16.438 5.637 16.438 18.355v47.878h-16.558V42.124c0-6.48-2.16-9.001-7.081-9.001 -5.641 0-8.758 3.48-8.758 10.678v42.838h-16.562V22.082H199.165z" class="a"/><path d="M282.449 20.405c19.919-0.36 25.439 11.518 25.439 33.957 0 22.079-6.48 33.96-25.439 33.96 -19.918 0.356-25.439-11.518-25.439-33.96C257.013 32.283 263.491 20.405 282.449 20.405zM282.449 77.044c6.718 0 8.881-6.601 8.881-22.682 0-16.078-2.16-22.679-8.881-22.679 -8.157 0-8.881 9.481-8.881 22.679C273.572 67.563 274.292 77.044 282.449 77.044z" class="a"/><path d="M316.772 22.082h15.842v8.641h0.24c3.36-6.241 8.04-10.321 14.878-10.321 0.963 0 2.04 0.12 3 0.24V36.48c-1.68-0.12-3.48-0.24-5.16-0.24 -5.761 0-12.238 3-12.238 11.641v38.757h-16.562V22.082L316.772 22.082z" class="a"/><path d="M387.819 45.361c0-6.241-1.2-12.961-7.44-12.961 -8.158 0-9.479 7.201-9.479 22.079 0 15.961 1.44 22.562 8.881 22.562 5.521 0 8.041-4.681 8.041-15.122h15.838c0 16.918-7.077 26.399-24.599 26.399 -16.556 0-24.716-8.041-24.716-33.959 0-26.516 10.918-33.957 26.159-33.957 15.235 0 23.155 9.718 23.155 24.956h-15.841V45.361z" class="a"/><path d="M412.305 22.082h15.842v8.641h0.239c3.357-6.241 8.038-10.321 14.879-10.321 0.963 0 2.04 0.12 2.997 0.24V36.48c-1.678-0.12-3.48-0.24-5.157-0.24 -5.761 0-12.238 3-12.238 11.641v38.757h-16.562V22.082L412.305 22.082z" class="a"/><path d="M475.547 20.405c19.919-0.36 25.439 11.518 25.439 33.957 0 22.079-6.483 33.96-25.438 33.96 -19.922 0.356-25.439-11.518-25.439-33.96C450.108 32.283 456.586 20.405 475.547 20.405zM475.547 77.044c6.718 0 8.878-6.601 8.878-22.682 0-16.078-2.16-22.679-8.878-22.679 -8.16 0-8.88 9.481-8.88 22.679C466.663 67.563 467.387 77.044 475.547 77.044z" class="a"/><path d="M521.988 65.52v2.163c0 5.637 3.004 9.361 8.641 9.361 5.041 0 8.401-2.523 8.401-7.681 0-4.2-2.764-6.121-6.001-7.321l-11.641-4.2c-9.118-3.237-13.799-8.881-13.799-17.996 0-10.681 6.718-19.438 23.76-19.438 14.995 0 22.075 6.718 22.075 18.355v2.64h-14.878c0-6.48-1.917-9.718-7.32-9.718 -4.197 0-7.798 2.4-7.798 6.961 0 3.117 1.677 5.757 7.197 7.561l9.958 3.357c10.441 3.48 14.278 8.758 14.278 18.482 0 13.558-10.078 20.279-23.999 20.279 -18.599 0-23.759-8.161-23.759-20.519v-2.283h14.884V65.52z" class="a"/><path d="M575.273 65.52v2.163c0 5.637 3 9.361 8.638 9.361 5.04 0 8.4-2.523 8.4-7.681 0-4.2-2.76-6.121-6-7.321l-11.642-4.2c-9.117-3.237-13.798-8.881-13.798-17.996 0-10.681 6.721-19.438 23.759-19.438 14.998 0 22.076 6.718 22.076 18.355v2.64h-14.878c0-6.48-1.917-9.718-7.318-9.718 -4.197 0-7.8 2.4-7.8 6.961 0 3.117 1.68 5.757 7.197 7.561l9.961 3.357c10.438 3.48 14.278 8.758 14.278 18.482 0 13.558-10.078 20.279-24.003 20.279 -18.599 0-23.756-8.161-23.756-20.519v-2.283h14.885V65.52z" class="a"/></svg>
