<svg xmlns="http://www.w3.org/2000/svg" width="500" height="500" viewBox="0 0 500 500"><style>.a{fill:#010101;}.b{fill:#8A9298;}</style><rect width="500" height="500" fill="#FFF"/><path d="M132.445 280.563h-2.127l0.607-2.855h2.126l0.394-1.854c0.626-2.946 2.503-3.919 5.207-3.919 0.76 0 1.482 0.03 2.229 0.092l-0.633 2.977c-0.267-0.03-0.54-0.03-0.813-0.03 -1.185 0-1.688 0.365-1.888 1.307l-0.303 1.428h2.43l-0.607 2.855h-2.43l-2.866 13.489h-4.192L132.445 280.563z" class="a"/><path d="M146.453 292.139h-0.061c-1.223 1.61-2.897 2.34-4.659 2.34 -2.613 0-3.859-1.429-3.175-4.648l2.576-12.122h4.192l-2.395 11.271c-0.349 1.641 0.062 2.278 1.308 2.278 1.428 0 2.405-0.881 2.792-2.704l2.304-10.846h4.192l-3.473 16.345h-4.01L146.453 292.139z" class="a"/><path d="M157.615 272.361h4.193l-4.609 21.691h-4.192L157.615 272.361z" class="a"/><path d="M164.908 272.361h4.193l-4.609 21.691h-4.192L164.908 272.361z" class="a"/><path d="M178.192 283.48l-0.761 3.585h-8.567l0.762-3.585H178.192z" class="a"/><path d="M182.888 288.706l-0.116 0.547c-0.304 1.428 0.256 2.369 1.684 2.369 1.276 0 2.262-0.638 2.54-1.944 0.226-1.063-0.37-1.549-1.125-1.853l-2.721-1.063c-2.135-0.82-3.016-2.248-2.526-4.558 0.575-2.703 2.747-4.921 7.061-4.921 3.797 0 5.229 1.701 4.603 4.647l-0.142 0.669h-3.767c0.349-1.641 0.037-2.461-1.331-2.461 -1.063 0-2.104 0.607-2.349 1.762 -0.167 0.79 0.116 1.458 1.417 1.914l2.341 0.851c2.456 0.881 3.144 2.218 2.621 4.679 -0.729 3.433-3.643 5.135-7.167 5.135 -4.709 0-5.576-2.066-4.912-5.195l0.123-0.577H182.888z" class="a"/><path d="M197.552 273.029h4.192l-0.994 4.679h2.43l-0.607 2.855h-2.43l-1.878 8.841c-0.271 1.276-0.107 1.793 1.108 1.793 0.334 0 0.675-0.03 0.955-0.062l-0.62 2.917c-0.931 0.091-1.801 0.183-2.773 0.183 -3.281 0-3.675-1.003-2.972-4.314l1.988-9.357h-2.127l0.607-2.855h2.126L197.552 273.029z" class="a"/><path d="M203.545 282.721l0.084-0.395c0.8-3.768 3.654-5.043 6.813-5.043 4.982 0 5.485 2.065 4.859 5.013l-1.826 8.598c-0.323 1.519-0.38 2.218-0.155 3.159h-4.01c-0.164-0.517-0.15-1.154-0.155-1.701h-0.061c-1.333 1.701-2.609 2.127-4.614 2.127 -2.916 0-3.42-2.491-2.955-4.679 0.652-3.068 2.162-4.314 5.216-5.104l2.505-0.638c1.316-0.334 1.845-0.82 2.078-1.914 0.265-1.245-0.121-2.005-1.519-2.005 -1.276 0-2.125 0.851-2.396 2.127l-0.097 0.455H203.545zM210.53 285.881c-0.667 0.425-1.424 0.698-1.967 0.82 -1.779 0.364-2.622 1.185-2.931 2.643 -0.265 1.246-0.028 2.278 1.096 2.278s2.737-0.729 3.118-2.521L210.53 285.881z" class="a"/><path d="M225.873 283.602c0.335-1.579 0.393-3.28-1.187-3.28 -2.066 0-2.787 1.822-3.588 5.59 -0.858 4.04-0.849 5.711 1.035 5.711 1.397 0 2.287-1.185 2.849-3.828h4.01c-0.91 4.284-3.212 6.685-7.648 6.685 -4.192 0-5.826-2.036-4.432-8.598 1.426-6.715 4.591-8.598 8.449-8.598s5.341 2.46 4.521 6.318H225.873z" class="a"/><path d="M238.806 272.361l-2.434 11.453h0.061l5.52-6.106h4.618l-6.077 6.44 3.303 9.904h-4.618l-2.067-6.714 -1.901 1.944 -1.014 4.77h-4.192l4.608-21.691H238.806z" class="a"/><path d="M261.244 292.321h-0.061c-1.234 1.519-2.524 2.157-4.165 2.157 -3.433 0-4.477-2.522-3.186-8.598 1.291-6.076 3.406-8.598 6.839-8.598 1.58 0 2.508 0.638 3.111 1.944h0.061l1.458-6.866h4.193l-4.609 21.691h-4.01L261.244 292.321zM259.07 291.258c1.854 0 2.605-1.823 3.36-5.377 0.755-3.555 0.778-5.378-1.075-5.378 -1.823 0-2.575 1.823-3.33 5.378C257.27 289.435 257.247 291.258 259.07 291.258z" class="a"/><path d="M272.87 286.519l-0.277 1.307c-0.407 1.913-0.291 3.797 1.259 3.797 1.397 0 2.201-1.063 2.87-3.068h3.767c-0.958 3.798-3.233 5.925-7.183 5.925 -6.076 0-5.325-4.679-4.46-8.75 0.929-4.375 2.645-8.445 8.295-8.445 4.891 0 5.288 3.28 4.223 8.293l-0.2 0.942H272.87zM277.683 284.027c0.438-2.491 0.431-3.889-1.3-3.889 -1.671 0-2.525 1.731-2.848 3.251l-0.136 0.638H277.683z" class="a"/><path d="M292.973 277.708h4.193l-7.574 16.345h-4.861l-0.75-16.345h4.375l-0.146 11.696h0.061L292.973 277.708z" class="a"/><path d="M300.43 286.519l-0.277 1.307c-0.406 1.913-0.29 3.797 1.26 3.797 1.396 0 2.2-1.063 2.869-3.068h3.768c-0.959 3.798-3.233 5.925-7.184 5.925 -6.076 0-5.324-4.679-4.459-8.75 0.929-4.375 2.645-8.445 8.295-8.445 4.891 0 5.288 3.28 4.223 8.293l-0.199 0.942H300.43zM305.243 284.027c0.438-2.491 0.431-3.889-1.3-3.889 -1.672 0-2.525 1.731-2.848 3.251l-0.137 0.638H305.243z" class="a"/><path d="M314.074 272.361h4.192l-4.608 21.691h-4.193L314.074 272.361z" class="a"/><path d="M326.062 277.283c5.062-0.092 5.821 2.916 4.614 8.598 -1.188 5.59-3.468 8.598-8.268 8.598 -5.062 0.091-5.821-2.917-4.614-8.598C318.982 280.29 321.263 277.283 326.062 277.283zM323.016 291.622c1.701 0 2.604-1.671 3.469-5.741 0.865-4.071 0.673-5.742-1.028-5.742 -2.065 0-2.759 2.4-3.468 5.742C321.277 289.223 320.95 291.622 323.016 291.622z" class="a"/><path d="M334.664 277.708h4.011l-0.368 1.731h0.061c1.234-1.519 2.524-2.156 4.165-2.156 3.433 0 4.477 2.521 3.187 8.598 -1.291 6.075-3.407 8.598-6.84 8.598 -1.58 0-2.508-0.639-3.111-1.944h-0.061l-1.459 6.865h-4.192L334.664 277.708zM338.196 291.258c1.822 0 2.574-1.823 3.329-5.377 0.756-3.555 0.778-5.378-1.045-5.378 -1.853 0-2.604 1.823-3.359 5.378C336.365 289.435 336.343 291.258 338.196 291.258z" class="a"/><path d="M351.57 286.519l-0.277 1.307c-0.407 1.913-0.29 3.797 1.259 3.797 1.397 0 2.201-1.063 2.87-3.068h3.767c-0.958 3.798-3.233 5.925-7.183 5.925 -6.076 0-5.325-4.679-4.46-8.75 0.93-4.375 2.645-8.445 8.296-8.445 4.891 0 5.287 3.28 4.223 8.293l-0.2 0.942H351.57zM356.383 284.027c0.438-2.491 0.432-3.889-1.3-3.889 -1.671 0-2.525 1.731-2.848 3.251l-0.136 0.638H356.383z" class="a"/><path d="M363.926 277.708h4.01l-0.465 2.188h0.062c1.186-1.58 2.59-2.612 4.322-2.612 0.242 0 0.51 0.03 0.746 0.061l-0.852 4.01c-0.42-0.03-0.869-0.061-1.295-0.061 -1.457 0-3.26 0.76-3.725 2.947l-2.084 9.812h-4.192L363.926 277.708z" class="a"/><path d="M68.122 236.608v3.31c0 4.85 1.309 9.623 5.234 9.623 3.541 0 5.004-2.694 5.62-7.775h9.546c-0.385 9.623-5.004 15.012-15.011 15.012 -15.396 0-16.012-11.855-16.012-22.171 0-11.085 2.155-21.4 16.474-21.4 12.394 0 15.166 8.314 15.166 21.016v2.386H68.122zM78.976 230.295c-0.231-6.312-1-9.854-5.389-9.854 -4.234 0-5.465 4.388-5.465 8.237v1.616H78.976z" class="b"/><path d="M94.371 214.284h10.162v5.542h0.154c2.155-4.003 5.158-6.62 9.546-6.62 0.616 0 1.309 0.077 1.924 0.154v10.162c-1.078-0.077-2.232-0.154-3.31-0.154 -3.695 0-7.852 1.925-7.852 7.467v24.865H94.371V214.284z" class="b"/><path d="M120.082 200.119h10.624v9.084h-10.624V200.119zM120.082 214.284h10.624v41.416h-10.624V214.284z" class="b"/><path d="M157.801 229.218c0-4.003-0.77-8.314-4.773-8.314 -5.234 0-6.081 4.619-6.081 14.165 0 10.238 0.924 14.473 5.696 14.473 3.541 0 5.158-3.002 5.158-9.7h10.162c0 10.854-4.542 16.936-15.781 16.936 -10.623 0-15.858-5.158-15.858-21.786 0-17.013 7.005-21.785 16.782-21.785s14.857 6.235 14.857 16.012H157.801z" class="b"/><path d="M183.941 214.286h10.162v4.85h0.154c2.232-4.08 6.082-5.927 10.546-5.927 6.62 0 10.546 3.618 10.546 11.778v30.715h-10.624v-28.56c0-4.157-1.385-5.774-4.542-5.774 -3.618 0-5.62 2.232-5.62 6.852v27.482h-10.624V214.286z" class="a"/><path d="M237.058 213.208c12.778-0.231 16.32 7.39 16.32 21.785 0 14.165-4.157 21.786-16.32 21.786 -12.779 0.23-16.32-7.391-16.32-21.786C220.738 220.829 224.895 213.208 237.058 213.208zM237.058 249.543c4.311 0 5.696-4.234 5.696-14.55 0-10.315-1.386-14.549-5.696-14.549 -5.235 0-5.697 6.082-5.697 14.549C231.361 243.461 231.823 249.543 237.058 249.543z" class="a"/><path d="M258.766 214.286h10.162v5.542h0.154c2.155-4.003 5.157-6.62 9.545-6.62 0.616 0 1.309 0.077 1.925 0.154v10.162c-1.078-0.077-2.232-0.154-3.311-0.154 -3.694 0-7.852 1.925-7.852 7.467v24.865h-10.624V214.286z" class="a"/><path d="M304.029 229.22c0-4.003-0.77-8.314-4.773-8.314 -5.234 0-6.08 4.619-6.08 14.165 0 10.238 0.924 14.473 5.695 14.473 3.541 0 5.158-3.002 5.158-9.7h10.162c0 10.854-4.543 16.936-15.781 16.936 -10.624 0-15.858-5.158-15.858-21.786 0-17.013 7.004-21.785 16.782-21.785 9.775 0 14.857 6.235 14.857 16.012H304.029z" class="a"/><path d="M319.426 214.286h10.16v5.542h0.154c2.156-4.003 5.158-6.62 9.547-6.62 0.615 0 1.309 0.077 1.924 0.154v10.162c-1.078-0.077-2.232-0.154-3.311-0.154 -3.695 0-7.852 1.925-7.852 7.467v24.865h-10.623V214.286z" class="a"/><path d="M359.686 213.208c12.777-0.231 16.318 7.39 16.318 21.785 0 14.165-4.156 21.786-16.318 21.786 -12.779 0.23-16.32-7.391-16.32-21.786C343.365 220.829 347.521 213.208 359.686 213.208zM359.686 249.543c4.311 0 5.695-4.234 5.695-14.55 0-10.315-1.385-14.549-5.695-14.549 -5.236 0-5.697 6.082-5.697 14.549C353.988 243.461 354.449 249.543 359.686 249.543z" class="a"/><path d="M389.168 242.152v1.386c0 3.618 1.924 6.005 5.543 6.005 3.232 0 5.389-1.617 5.389-4.927 0-2.694-1.771-3.926-3.85-4.696l-7.467-2.694c-5.85-2.078-8.854-5.696-8.854-11.547 0-6.851 4.312-12.471 15.242-12.471 9.623 0 14.166 4.311 14.166 11.778v1.694h-9.547c0-4.157-1.23-6.236-4.695-6.236 -2.693 0-5.004 1.54-5.004 4.465 0 2.001 1.078 3.695 4.619 4.85l6.389 2.155c6.697 2.232 9.162 5.62 9.162 11.855 0 8.699-6.467 13.01-15.396 13.01 -11.932 0-15.242-5.235-15.242-13.164v-1.463H389.168z" class="a"/><path d="M423.037 242.152v1.386c0 3.618 1.924 6.005 5.543 6.005 3.232 0 5.389-1.617 5.389-4.927 0-2.694-1.771-3.926-3.85-4.696l-7.467-2.694c-5.85-2.078-8.854-5.696-8.854-11.547 0-6.851 4.312-12.471 15.242-12.471 9.623 0 14.166 4.311 14.166 11.778v1.694h-9.547c0-4.157-1.23-6.236-4.695-6.236 -2.693 0-5.004 1.54-5.004 4.465 0 2.001 1.078 3.695 4.619 4.85l6.389 2.155c6.697 2.232 9.162 5.62 9.162 11.855 0 8.699-6.467 13.01-15.396 13.01 -11.932 0-15.242-5.235-15.242-13.164v-1.463H423.037z" class="a"/></svg>
