<?xml version="1.0" encoding="utf-8"?>
<!-- Generator: Adobe Illustrator 15.1.0, SVG Export Plug-In . SVG Version: 6.00 Build 0)  -->
<!DOCTYPE svg PUBLIC "-//W3C//DTD SVG 1.1//EN" "http://www.w3.org/Graphics/SVG/1.1/DTD/svg11.dtd">
<svg version="1.1" id="Content" xmlns="http://www.w3.org/2000/svg" xmlns:xlink="http://www.w3.org/1999/xlink" x="0px" y="0px"
	 width="960px" height="1086.588px" viewBox="0 0 960 1086.588" enable-background="new 0 0 960 1086.588" xml:space="preserve">
<symbol  id="New_Symbol_233" viewBox="-8 -8 16 16">
	<polygon points="-3.172,-1.758 -6.208,-4.793 -8,-3 -8,-8 -3,-8 -4.792,-6.207 -1.757,-3.173 	"/>
	<polygon points="3,8 4.792,6.207 1.757,3.172 3.172,1.757 6.208,4.793 8,3 8,8 	"/>
	<polygon points="-3.172,1.758 -1.758,3.172 -4.792,6.207 -3,8 -8,8 -8,3 -6.208,4.793 	"/>
	<polygon points="3.172,-1.757 1.757,-3.173 4.792,-6.207 3,-8 8,-8 8,-3 6.207,-4.793 	"/>
</symbol>
<use xlink:href="#New_Symbol_233"  width="16" height="16" id="XMLID_1_" x="-8" y="-8" transform="matrix(0.9375 0 0 -0.9375 17.647 570)" overflow="visible"/>
</svg>
